<svg id="Layer_2" data-name="Layer 2" xmlns="http://www.w3.org/2000/svg" width="170.17" height="97.2" viewBox="0 0 170.17 97.2">
  <defs>
    <style>
      .cls-1 {
        fill: #acb7c1;
      }

      .cls-2 {
        isolation: isolate;
      }

      .cls-3 {
        fill: #d00c2a;
      }
    </style>
  </defs>
  <g id="barbell_hand" data-name="barbell hand" fill="#acb7c1">
    <path class="cls-1" d="M97.33,30.26a3.08,3.08,0,0,0,3.07-3.08V17.72a3.08,3.08,0,1,0-6.15-.35,2,2,0,0,0,0,.35v9.46A3.08,3.08,0,0,0,97.33,30.26Z" transform="translate(-9.67)"/>
    <path class="cls-1" d="M89.77,30.26a3.08,3.08,0,0,0,3.07-3.08V16.29a3.08,3.08,0,0,0-6.15,0V27.18a3.06,3.06,0,0,0,3.06,3.08Z" transform="translate(-9.67)"/>
    <path class="cls-1" d="M82.2,30.26a3.08,3.08,0,0,0,3.08-3.08h0V20.56a3.08,3.08,0,0,0-6.16,0v6.62a3.08,3.08,0,0,0,3.08,3.08Z" transform="translate(-9.67)"/>
    <path class="cls-1" d="M107.12,21.32A3,3,0,0,0,102,24.6l3.08,4.78c-4.74.87-12.31,3-14.9,7.81-3.22,6-1.68,9.71-1.68,9.71H86.82a16.24,16.24,0,0,1,.46-7.46,21.75,21.75,0,0,1,5-7.71H79.12v8.7a12.48,12.48,0,0,0,1.2,4.44,7.46,7.46,0,0,0,3,2.68V80.83h22.22l-4.42-32.94h0l7.46-6.62a2.94,2.94,0,0,0,.81-1.16c3.73-9.62,3.73-9.62,2.87-10.86Z" transform="translate(-9.67)"/>
    <polygon class="cls-1" points="62.27 0 51.78 0 51.78 49.26 62.27 49.26 62.27 29.33 67.64 29.33 67.64 20.57 62.27 20.57 62.27 0"/>
    <polygon class="cls-1" points="42.85 20.57 34.69 20.57 34.69 29.33 42.85 29.33 42.85 43.24 49.66 43.24 49.66 6.02 42.85 6.02 42.85 20.57"/>
    <polygon class="cls-1" points="107.11 20.57 99.42 20.56 104.98 29.33 107.11 29.33 107.11 49.26 117.59 49.26 117.59 0 107.11 0 107.11 20.57"/>
    <polygon class="cls-1" points="126.53 20.57 126.53 6.02 119.72 6.02 119.72 43.24 126.53 43.24 126.53 29.33 134.69 29.33 134.69 20.57 126.53 20.57"/>
  </g>
  <g id="personal_trainer" data-name="personal trainer" fill="#acb7c1">
    <g class="cls-2">
      <path class="cls-1" d="M9.67,96.93V80.85H14c3.72,0,5.6,1.39,5.6,4.41s-1.83,4.5-5.86,4.5H11v7.17Zm4.22-8.38c1.83,0,4.37-.22,4.37-3.29,0-2.17-1.42-3.2-4.11-3.2H11v6.49Z" transform="translate(-9.67)"/>
      <path class="cls-1" d="M21.15,96.93V80.85H30v1.21H22.48V88h5.4v1.21h-5.4v6.56h7.9v1.21Z" transform="translate(-9.67)"/>
      <path class="cls-1" d="M40.8,96.93l-3.62-7.34H33v7.34H31.7V80.85h4.39c3.93,0,5.61,1.5,5.61,4.32a4,4,0,0,1-3.18,4.1l3.81,7.66Zm-4.48-8.55c1.47,0,4-.3,4-3.19s-2.18-3.13-4.07-3.13H33v6.32Z" transform="translate(-9.67)"/>
    </g>
    <g class="cls-2">
      <path class="cls-1" d="M51.28,84.52c-.71-1.88-1.75-2.75-3.64-2.75s-3.25,1.12-3.25,3c0,4.06,8.44,2.38,8.44,8,0,3-2,4.5-4.95,4.5s-4.35-1.3-5.3-4.08l1.25-.44C44.5,94.94,45.66,96,47.92,96c2.09,0,3.57-1.14,3.57-3.27,0-4.43-8.37-2.62-8.37-8,0-2.71,1.92-4.19,4.56-4.19a4.52,4.52,0,0,1,4.74,3.52Z" transform="translate(-9.67)"/>
    </g>
    <g class="cls-2">
      <path class="cls-1" d="M53.62,88.89c0-5.24,2.37-8.31,6.13-8.31s6.14,3.07,6.14,8.31-2.37,8.31-6.14,8.31S53.62,94.13,53.62,88.89Zm10.93,0c0-4.46-2-7.12-4.8-7.12S55,84.43,55,88.89s2,7.12,4.8,7.12S64.55,93.35,64.55,88.89Z" transform="translate(-9.67)"/>
      <path class="cls-1" d="M77.38,96.93,69,81.9h0v15h-1.3V80.85h2.26l7.45,13.57h0V80.85h1.3V96.93Z" transform="translate(-9.67)"/>
      <path class="cls-1" d="M90.62,96.93,89,91.65H83l-1.61,5.28H80.09l5-16.08h2l5,16.08Zm-7.23-6.49h5.25L86,81.86H86Z" transform="translate(-9.67)"/>
      <path class="cls-1" d="M93.4,96.93V80.85h1.33V95.72h7v1.21Z" transform="translate(-9.67)"/>
      <path class="cls-1" d="M109,96.93V82.06h-4.62V80.85H115v1.21h-4.63V96.93Z" transform="translate(-9.67)"/>
      <path class="cls-1" d="M125.4,96.93l-3.61-7.34h-4.15v7.34H116.3V80.85h4.39c3.94,0,5.62,1.5,5.62,4.32a4,4,0,0,1-3.19,4.1l3.81,7.66Zm-4.47-8.55c1.46,0,4-.3,4-3.19s-2.17-3.13-4.06-3.13h-3.25v6.32Z" transform="translate(-9.67)"/>
      <path class="cls-1" d="M137.65,96.93,136,91.65h-6l-1.62,5.28h-1.33l5-16.08h2l5,16.08Zm-7.23-6.49h5.25l-2.6-8.58h0Z" transform="translate(-9.67)"/>
      <path class="cls-1" d="M140.43,96.93V80.85h1.34V96.93Z" transform="translate(-9.67)"/>
      <path class="cls-1" d="M154.4,96.93,146,81.9h0v15h-1.3V80.85H147l7.45,13.57h0V80.85h1.29V96.93Z" transform="translate(-9.67)"/>
      <path class="cls-1" d="M158.66,96.93V80.85h8.83v1.21H160V88h5.4v1.21H160v6.56h7.9v1.21Z" transform="translate(-9.67)"/>
      <path class="cls-1" d="M178.31,96.93l-3.61-7.34h-4.15v7.34h-1.34V80.85h4.39c3.94,0,5.62,1.5,5.62,4.32a4,4,0,0,1-3.19,4.1l3.81,7.66Zm-4.47-8.55c1.46,0,4-.3,4-3.19s-2.17-3.13-4.06-3.13h-3.25v6.32Z" transform="translate(-9.67)"/>
    </g>
  </g>
  <g id="Scott_Thom" data-name="Scott Thom" fill="#d00c2a">
    <g fill="#d00c2a">
      <path class="cls-3" d="M18.06,59.05a7.66,7.66,0,0,0-1-2.64,1.71,1.71,0,0,0-1.45-.83,1.51,1.51,0,0,0-1.36.75,3.92,3.92,0,0,0-.47,2.07,2.77,2.77,0,0,0,.55,1.7,8.44,8.44,0,0,0,1.38,1.42c.55.46,1.14.95,1.76,1.45a12,12,0,0,1,1.76,1.8,9.83,9.83,0,0,1,1.41,2.46,9.34,9.34,0,0,1,.56,3.44,11.94,11.94,0,0,1-.37,3A7.12,7.12,0,0,1,19.77,76,4.85,4.85,0,0,1,18,77.52a5.13,5.13,0,0,1-2.34.52,4.55,4.55,0,0,1-3.52-1.72A11.64,11.64,0,0,1,10,70.77l3.28-1a9.43,9.43,0,0,0,.42,2A4.83,4.83,0,0,0,14.34,73a2.37,2.37,0,0,0,.76.72,1.7,1.7,0,0,0,.76.21,1.74,1.74,0,0,0,1.46-.81,3.81,3.81,0,0,0,.59-2.27,3.89,3.89,0,0,0-.55-2.09A8,8,0,0,0,16,67.17c-.55-.51-1.15-1-1.76-1.49A11.71,11.71,0,0,1,12.46,64,8.7,8.7,0,0,1,11,61.8a7.71,7.71,0,0,1-.55-3.08,9.31,9.31,0,0,1,1.31-5.3A4.86,4.86,0,0,1,17.66,52a5,5,0,0,1,1.57,1.31,7.8,7.8,0,0,1,1.16,2,11.8,11.8,0,0,1,.66,2.5Z" transform="translate(-9.67)"/>
      <path class="cls-3" d="M27.15,70a5.06,5.06,0,0,0,.58,2.89,2.06,2.06,0,0,0,3.07.13l.12-.13A5.06,5.06,0,0,0,31.5,70V68.3h3.32v1.08a17.25,17.25,0,0,1-.41,4.05,7.72,7.72,0,0,1-1.13,2.67,4.34,4.34,0,0,1-1.76,1.48,5.49,5.49,0,0,1-4.39,0,4.26,4.26,0,0,1-1.76-1.48,8,8,0,0,1-1.13-2.66,16.74,16.74,0,0,1-.42-4V60.16a16.64,16.64,0,0,1,.42-4,7.86,7.86,0,0,1,1.13-2.66A4.37,4.37,0,0,1,27.13,52a5.58,5.58,0,0,1,4.39,0,4.37,4.37,0,0,1,1.76,1.49,7.86,7.86,0,0,1,1.13,2.66,17.25,17.25,0,0,1,.41,4v.07H31.5v-.72a5.1,5.1,0,0,0-.58-2.9,2.07,2.07,0,0,0-3.07-.12l-.12.12a5.1,5.1,0,0,0-.58,2.9Z" transform="translate(-9.67)"/>
      <path class="cls-3" d="M37.23,60.15a16.74,16.74,0,0,1,.42-4,7.86,7.86,0,0,1,1.13-2.66A4.29,4.29,0,0,1,40.54,52,5.61,5.61,0,0,1,45,52a4.4,4.4,0,0,1,1.75,1.49,7.88,7.88,0,0,1,1.14,2.66,17.24,17.24,0,0,1,.4,4v9.23a17.24,17.24,0,0,1-.4,4.05,8,8,0,0,1-1.14,2.66A4.38,4.38,0,0,1,45,77.57a5.53,5.53,0,0,1-4.44,0,4.26,4.26,0,0,1-1.76-1.48,8,8,0,0,1-1.13-2.66,16.74,16.74,0,0,1-.42-4.05ZM40.56,70a5.07,5.07,0,0,0,.59,2.89,2.05,2.05,0,0,0,3.06.13l.12-.13A5.06,5.06,0,0,0,44.91,70V59.5a5.1,5.1,0,0,0-.58-2.9,2.07,2.07,0,0,0-3.07-.12l-.11.12a5.1,5.1,0,0,0-.59,2.9Z" transform="translate(-9.67)"/>
      <path class="cls-3" d="M61,51.85v4.36H57.13V77.67H53.8V56.21H49.92V51.85Z" transform="translate(-9.67)"/>
      <path class="cls-3" d="M73.07,51.85v4.36H69.19V77.67H65.87V56.21H62V51.85Z" transform="translate(-9.67)"/>
    </g>
    <g class="cls-2">
      <path class="cls-3" d="M125.24,51.45V55.6h-4.58V77.32h-3.35V55.6h-4.58V51.45Z" transform="translate(-9.67)"/>
      <path class="cls-3" d="M127.76,77.32V51.49h3.34v10.3h6.74V51.49h3.34V77.32h-3.34V66.23H131.1V77.32Z" transform="translate(-9.67)"/>
      <path class="cls-3" d="M158.63,64.41q0,6.36-1.87,9.82a6.07,6.07,0,0,1-10.95,0c-1.24-2.31-1.87-5.58-1.87-9.82s.63-7.52,1.87-9.83a6.07,6.07,0,0,1,10.95,0C158,56.89,158.63,60.16,158.63,64.41Zm-3.35,0a18.34,18.34,0,0,0-1-6.86,3.15,3.15,0,0,0-6.05,0,18.34,18.34,0,0,0-1,6.86,17.65,17.65,0,0,0,.93,6.85,3.24,3.24,0,0,0,3.07,2.27,3.19,3.19,0,0,0,3-2.27A18.32,18.32,0,0,0,155.28,64.41Z" transform="translate(-9.67)"/>
      <path class="cls-3" d="M161.34,77.32V51.49H166l3.37,18h.05l3.39-18h4.75V77.32h-2.91V57h-.05l-3.92,20.32h-2.55L164.3,57h-.05V77.32Z" transform="translate(-9.67)"/>
    </g>
  </g>
</svg>
